# xmcd CD database file
#
# Track frame offsets:
#	150
#	14846
#	26286
#	55616
#	80089
#	107162
#	125432
#	141147
#	159968
#	175946
#	192098
#	210560
#	231673
#
# Disc length: 3301 seconds
#
# Revision: 0
# Processed by: cddbd v1.5.2PL0 Copyright (c) Steve Scherf et al.
# Submitted via: CDex 1.70beta2
#
DISCID=ae0ce30d
DTITLE=La Vella Dixieland - Hot Time
DYEAR=1900
DGENRE=Jazz
TTITLE0=Idaho
TTITLE1=There'll Be Hot Time in the Old Town
TTITLE2=Tin Roof Blues
TTITLE3=Do Watcha Wana
TTITLE4=God Bless the Child
TTITLE5=Exactly like You
TTITLE6=Louie's Lamentation
TTITLE7=Bogalusa Strut
TTITLE8=West end Blues
TTITLE9=On Revival Day
TTITLE10=Such Sweet Thunder
TTITLE11=Beale Street Blues
TTITLE12=Tickle Toe
EXTD=
EXTT0=
EXTT1=
EXTT2=
EXTT3=
EXTT4=
EXTT5=
EXTT6=
EXTT7=
EXTT8=
EXTT9=
EXTT10=
EXTT11=
EXTT12=
PLAYORDER=
